<?xml version="1.0" encoding="UTF-8" standalone="no"?>
<!DOCTYPE svg PUBLIC "-//W3C//DTD SVG 1.1//EN" "http://www.w3.org/Graphics/SVG/1.1/DTD/svg11.dtd">
<svg width="100%" height="100%" viewBox="0 0 24 24" version="1.1" xmlns="http://www.w3.org/2000/svg" xmlns:xlink="http://www.w3.org/1999/xlink" xml:space="preserve" xmlns:serif="http://www.serif.com/" style="fill-rule:evenodd;clip-rule:evenodd;stroke-linejoin:round;stroke-miterlimit:2;">
    <g transform="matrix(1,0,0,1,-4,-4)">
        <path d="M16,4C9.383,4 4,9.383 4,16C4,22.617 9.383,28 16,28C22.617,28 28,22.617 28,16C28,9.383 22.617,4 16,4ZM16,6C21.535,6 26,10.465 26,16C26,21.535 21.535,26 16,26C10.465,26 6,21.535 6,16C6,10.465 10.465,6 16,6ZM11.5,12C10.672,12 10,12.672 10,13.5C10,14.328 10.672,15 11.5,15C12.328,15 13,14.328 13,13.5C13,12.672 12.328,12 11.5,12ZM20.5,12C19.672,12 19,12.672 19,13.5C19,14.328 19.672,15 20.5,15C21.328,15 22,14.328 22,13.5C22,12.672 21.328,12 20.5,12ZM10.813,19L9.094,20C10.477,22.387 13.047,24 16,24C18.953,24 21.523,22.387 22.906,20L21.188,19C20.148,20.793 18.227,22 16,22C13.773,22 11.852,20.793 10.813,19Z" style="fill-rule:nonzero;"/>
    </g>
</svg>
