<?xml version="1.0" encoding="UTF-8" standalone="no"?>
<!DOCTYPE svg PUBLIC "-//W3C//DTD SVG 1.1//EN" "http://www.w3.org/Graphics/SVG/1.1/DTD/svg11.dtd">
<svg width="100%" height="100%" viewBox="0 0 25 25" version="1.1" xmlns="http://www.w3.org/2000/svg" xmlns:xlink="http://www.w3.org/1999/xlink" xml:space="preserve" xmlns:serif="http://www.serif.com/" style="fill-rule:evenodd;clip-rule:evenodd;stroke-linejoin:round;stroke-miterlimit:2;">
    <g transform="matrix(1,0,0,1,-3.59375,-3.59375)">
        <path d="M20.531,3.594L3.594,20.531L11.469,28.406L28.406,11.469L20.531,3.594ZM20.531,6.438L25.563,11.469L11.469,25.563L6.438,20.531L7.594,19.375L9.75,21.531L11.188,20.125L9,17.938L10.188,16.781L11.063,17.656L12.469,16.219L11.594,15.375L12.781,14.188L14.938,16.344L16.344,14.938L14.188,12.781L15.375,11.594L16.219,12.469L17.656,11.063L16.781,10.188L17.938,9L20.125,11.188L21.531,9.75L19.375,7.594L20.531,6.438Z" style="fill-rule:nonzero;"/>
    </g>
</svg>
