<?xml version="1.0" encoding="UTF-8" standalone="no"?>
<!DOCTYPE svg PUBLIC "-//W3C//DTD SVG 1.1//EN" "http://www.w3.org/Graphics/SVG/1.1/DTD/svg11.dtd">
<svg width="100%" height="100%" viewBox="0 0 24 26" version="1.1" xmlns="http://www.w3.org/2000/svg" xmlns:xlink="http://www.w3.org/1999/xlink" xml:space="preserve" xmlns:serif="http://www.serif.com/" style="fill-rule:evenodd;clip-rule:evenodd;stroke-linejoin:round;stroke-miterlimit:2;">
    <g transform="matrix(1,0,0,1,-4,-3)">
        <path d="M16.969,3L16.594,3.125L4.656,7.781L4,8L4,22L4.531,22.281L16.469,28.719L17,29L17.469,28.688L27.531,22.313L28,22L28,7.969L27.406,7.719L17.375,3.156L16.969,3ZM16.938,5.156L25.031,8.813L16.969,12.969L7.594,8.75L16.938,5.156ZM6,10.219L16,14.688L16,26.219L6,20.813L6,10.219ZM26,10.563L26,20.938L18,26.031L18,14.656L26,10.563ZM9.875,14.031L9.688,14.5L7.531,19.188L7.344,19.625L7.75,19.844L8.281,20.125L8.75,20.375L8.969,19.875L9.406,18.906L11.219,19.844L11.844,21.844L11.906,22.063L12.094,22.156L12.688,22.469L13.75,23.031L13.375,21.875L11.188,14.813L11.125,14.625L10.938,14.531L10.344,14.25L9.875,14.031ZM10.313,16.813L10.656,17.938L9.969,17.594L10.313,16.813Z" style="fill-rule:nonzero;"/>
    </g>
</svg>
